<svg width="960" height="540" xmlns="http://www.w3.org/2000/svg" xmlns:xlink="http://www.w3.org/1999/xlink" overflow="hidden"><defs><clipPath id="clip0"><rect x="0" y="0" width="960" height="540"/></clipPath></defs><g clip-path="url(#clip0)"><path d="M0 0 960 0 960 540 0 540Z" stroke="#7F7F7F" stroke-width="0.500053" fill="#F2F2F2"/><path d="M581.18 0 589.587 0 589.587 540 581.18 540Z" stroke="#7F7F7F" stroke-width="0.500053" fill="#D2D2D2"/><path d="M339.141 540 289.488 0 315.995 0 369.895 540Z" stroke="#7F7F7F" stroke-width="0.500053" fill="#E6E6E6"/><path d="M377.806 540 335.952 0 361.042 0 422.034 540Z" stroke="#7F7F7F" stroke-width="0.500053" fill="#E6E6E6"/><path d="M414.328 470.475 372.241 470.475 372.319 471.475 414.443 471.475Z" stroke="#7F7F7F" stroke-width="0.500053" fill="#F2F2F2"/><path d="M522.885 540 512.18 0 534.555 0 564.08 540Z" stroke="#7F7F7F" stroke-width="0.500053" fill="#E6E6E6"/><path d="M557.465 414.975 520.2 414.975 520.22 415.975 557.52 415.975Z" stroke="#7F7F7F" stroke-width="0.500053" fill="#F2F2F2"/><path d="M536.505 32.976 512.71 32.976 512.73 33.976 536.56 33.976Z" stroke="#7F7F7F" stroke-width="0.500053" fill="#F2F2F2"/><path d="M408.788 155.65 379.545 155.65 335.89 111.994 335.89 10.9755C335.89 10.9755 327.89 33.697 327.89 61.7255 327.89 86.653 334.217 107.381 335.617 111.662 335.629 111.7 335.625 111.699 335.607 111.663 334.789 109.989 324.437 89.237 305.432 70.2325 285.613 50.4135 263.89 40.0035 263.89 40.0035 263.89 40.0035 274.299 61.727 294.119 81.546 309.439 96.866 325.894 106.562 332.577 110.175L335.034 112.816 377.866 155.65 342.746 155.65C340.931 152.045 330.708 132.598 312.811 114.701 292.992 94.8815 271.268 84.4715 271.268 84.4715 271.268 84.4715 281.678 106.195 301.497 126.014 319.812 144.329 342.673 156.837 342.673 156.837L379.053 156.837 379.234 157.017 379.414 156.837 408.788 156.837 408.788 155.65Z" stroke="#7F7F7F" stroke-width="0.500053" fill="#D2D2D2"/><path d="M497.103 103.507C497.069 103.491 497.071 103.488 497.108 103.499 502.38 105.217 526.88 112.646 556.31 112.646 589.59 112.646 616.565 103.147 616.565 103.147 616.565 103.147 589.59 93.6485 556.31 93.6485 526.96 93.6485 502.51 101.037 497.151 102.781 497.07 102.807 497.017 102.825 497.017 102.825L480.866 102.825 517.005 66.688 529.03 66.688C529.03 66.688 529.255 66.76 529.665 66.8845 535.695 68.6975 551.605 72.8705 570.29 72.8705 594.155 72.8705 613.505 66.058 613.505 66.058 613.505 66.058 594.155 59.2455 570.29 59.2455 551.465 59.2455 535.465 63.48 529.535 65.271 529.175 65.38 528.785 65.5005 528.785 65.5005L517.82 65.5005 576.345 6.975C576.345 6.975 557.85 15.839 540.97 32.716 527.895 45.793 519.685 59.7415 516.625 65.4055L516.51 65.501 412.734 169.279 413.573 170.118 479.679 104.013 497.215 104.013C497.215 104.013 497.428 104.439 497.435 104.451 499.992 109.475 512.055 131.988 532.81 152.743 556.345 176.275 582.135 188.634 582.135 188.634 582.135 188.634 569.775 162.842 546.245 139.311 523.85 116.917 499.415 104.643 497.103 103.507Z" stroke="#7F7F7F" stroke-width="0.500053" fill="#D2D2D2"/><path d="M589.83 477.1C567.25 477.1 548.115 482.292 541.53 484.31 541.525 484.312 541.52 484.305 541.525 484.302 548.68 480.361 564.425 470.84 579.12 456.143 598.94 436.324 609.35 414.6 609.35 414.6 609.35 414.6 587.625 425.01 567.805 444.829 551.83 460.807 541.97 478.02 538.745 484.093L511.45 511.39C511.42 511.42 511.44 511.475 511.485 511.475L513.045 511.475 538.72 485.799C539.085 485.612 539.53 485.38 540.055 485.1L640.58 485.1C640.58 485.1 617.855 477.1 589.83 477.1Z" stroke="#7F7F7F" stroke-width="0.500053" fill="#D2D2D2"/><path d="M452.397 540 375.839 0 425.221 0 517.96 540Z" stroke="#7F7F7F" stroke-width="0.500053" fill="#D2D2D2"/><path d="M393.013 122.354 446.039 120.088 445.868 119.094 392.872 121.359Z" stroke="#7F7F7F" stroke-width="0.500053" fill="#F2F2F2"/><path d="M513.255 511.475 448.181 511.475 448.322 512.475 513.425 512.475Z" stroke="#7F7F7F" stroke-width="0.500053" fill="#F2F2F2"/><path d="M307.287 539.84 242.428 469.897C181.454 418.988 95.471 407.628 23.364 440.954L22.9445 440.046C58.684 423.528 98.2055 417.526 137.238 422.685 176.27 427.845 212.874 443.913 243.094 469.151L243.14 469.194 308.021 539.16 307.287 539.84Z" stroke="#7F7F7F" stroke-width="0.500053" fill="#FFFFFF"/><path d="M313.184 539.67 292.417 482.595C241.35 392.651 141.969 342.178 39.211 353.996L39.0965 353.004C89.618 347.189 140.288 356.293 185.63 379.326 230.97 402.358 268.204 437.909 293.306 482.138L293.341 482.214 314.124 539.33 313.184 539.67Z" stroke="#7F7F7F" stroke-width="0.500053" fill="#FFFFFF"/><path d="M163.24 296.166 164.097 295.651 310.603 539.258 309.746 539.774Z" stroke="#7F7F7F" stroke-width="0.500074" fill="#E6E6E6"/><path d="M137.592 310.603 138.381 309.987 317.536 539.211 316.747 539.827Z" stroke="#7F7F7F" stroke-width="0.500051" fill="#E6E6E6"/><path d="M357.654 431.289C357.654 431.289 341.395 431.43 319.244 439.497 298.716 446.974 283.778 458.56 281.698 460.219 277.775 452.032 273.975 443.785 270.296 435.487 273.324 435.212 289.153 433.485 305.985 426.198 324.709 418.091 337.574 406.175 337.574 406.175 337.574 406.175 320.082 407.402 301.358 415.509 284.521 422.798 272.427 433.162 270.159 435.178 266.47 426.85 262.901 418.47 259.461 410.038 262.655 409.462 275.47 406.842 288.721 399.786 304.018 391.641 314.095 380.671 314.095 380.671 314.095 380.671 299.368 382.908 284.071 391.053 270.892 398.071 261.595 407.177 259.272 409.568 255.868 401.212 252.592 392.809 249.439 384.362 252.011 383.587 262.365 380.206 272.657 373.108 284.528 364.924 291.815 354.901 291.815 354.901 291.815 354.901 279.855 358.147 267.985 366.332 257.832 373.332 251.036 381.673 249.281 383.941 246.963 377.723 244.709 371.483 242.527 365.219L240.277 358.757C242.223 357.792 250.122 353.643 257.46 346.497 265.904 338.274 270.402 329.197 270.402 329.197 270.402 329.197 261.21 333.453 252.765 341.677 245.621 348.634 241.303 356.201 240.141 358.366L238.596 353.927 237.143 354.432 238.699 358.901C236.298 357.948 228.21 355 218.393 354.276 206.639 353.409 196.861 356.061 196.861 356.061 196.861 356.061 206.143 360.119 217.898 360.986 227.983 361.73 236.605 359.884 238.854 359.345L241.075 365.724C243.258 371.993 245.515 378.241 247.835 384.466 244.811 383.82 234.4 381.895 222.342 383.043 207.988 384.409 196.742 389.615 196.742 389.615 196.742 389.615 208.769 392.603 223.122 391.237 235.385 390.069 245.372 386.103 248.025 384.972 251.176 393.412 254.451 401.81 257.852 410.159 254.321 409.811 241.497 408.884 227.092 411.944 210.139 415.543 197.423 423.301 197.423 423.301 197.423 423.301 212.193 425.221 229.146 421.621 243.706 418.529 255.131 412.376 258.069 410.698 276.24 455.228 297.914 498.391 322.77 539.5L324.085 538.705C308.748 513.34 294.627 487.189 281.793 460.418 284.581 460.345 303.409 459.585 323.848 452.141 346 444.074 357.654 431.289 357.654 431.289Z" stroke="#7F7F7F" stroke-width="0.500053" fill="#E6E6E6"/><path d="M237.739 353.734C237.739 353.734 237.63 343.604 233.596 332.529 229.563 321.453 223.132 313.626 223.132 313.626 223.132 313.626 223.24 323.756 227.274 334.832 231.307 345.906 237.739 353.734 237.739 353.734Z" stroke="#7F7F7F" stroke-width="0.500053" fill="#E6E6E6"/><path d="M288.807 519.045C272.082 509.565 255.8 499.246 240.042 488.178 242.303 486.802 252.191 480.492 260.981 470.272 270.978 458.648 275.765 446.371 275.765 446.371 275.765 446.371 264.342 452.941 254.346 464.565 245.514 474.834 240.751 485.607 239.76 487.979 234.934 484.586 230.156 481.122 225.432 477.587 227.521 476.128 235.552 470.224 242.481 461.128 250.523 450.572 254.028 439.72 254.028 439.72 254.028 439.72 244.497 445.982 236.455 456.538 229.521 465.639 225.962 474.954 225.113 477.35 220.469 473.871 215.871 470.332 211.331 466.721 213.327 465.043 219.378 459.634 224.38 451.834 230.466 442.346 232.691 432.918 232.691 432.918 232.691 432.918 225.05 438.872 218.964 448.36 214.003 456.095 211.608 463.79 210.893 466.368 206.368 462.763 201.902 459.086 197.488 455.352 199.008 453.739 203.459 448.715 206.831 441.84 210.96 433.421 211.904 425.417 211.904 425.417 211.904 425.417 206.154 431.064 202.025 439.483 198.719 446.224 197.455 452.694 197.083 455.008 193.809 452.234 190.558 449.434 187.346 446.592L184.092 443.711C185.128 442.147 187.978 437.527 189.731 431.596 191.904 424.245 191.568 417.665 191.568 417.665 191.568 417.665 187.708 423.004 185.535 430.355 183.852 436.048 183.674 441.276 183.68 443.346L181.524 441.438 180.861 442.186 183.178 444.237C181.248 444.514 175.975 445.454 170.453 448.038 163.51 451.286 158.807 455.901 158.807 455.901 158.807 455.901 165.363 455.25 172.307 452.001 178.027 449.325 182.219 445.728 183.52 444.54L186.683 447.34C189.93 450.213 193.217 453.043 196.527 455.847 194.399 456.521 188.078 458.741 181.8 463.094 174.093 468.436 169.37 474.966 169.37 474.966 169.37 474.966 177.143 472.836 184.85 467.493 191.253 463.054 195.594 457.799 196.88 456.147 201.307 459.89 205.785 463.576 210.321 467.191 207.96 468.242 200.63 471.77 193.647 477.9 185.176 485.336 180.432 493.781 180.432 493.781 180.432 493.781 189.421 490.171 197.891 482.735 204.959 476.53 209.43 469.627 210.717 467.509 215.27 471.13 219.88 474.68 224.537 478.168 222.479 479.26 213.639 484.202 205.544 492.556 196.309 502.085 191.544 512.45 191.544 512.45 191.544 512.45 201.749 507.36 210.984 497.828 219.133 489.417 223.799 480.363 224.783 478.352 229.525 481.9 234.321 485.376 239.166 488.784 236.983 490.109 227.033 496.432 218.191 506.71 208.193 518.335 203.406 530.615 203.406 530.615 203.406 530.615 214.829 524.045 224.826 512.42 233.708 502.095 238.473 491.259 239.427 488.967 255.224 500.065 271.546 510.41 288.314 519.915L323.737 540 324.23 539.13 288.807 519.045Z" stroke="#7F7F7F" stroke-width="0.500053" fill="#E6E6E6"/><path d="M168.938 434.258C174.749 439.257 180.887 441.65 180.887 441.65 180.887 441.65 177.602 435.939 171.791 430.94 165.98 425.94 159.841 423.547 159.841 423.547 159.841 423.547 163.126 429.259 168.938 434.258Z" stroke="#7F7F7F" stroke-width="0.500053" fill="#E6E6E6"/><path d="M806.925 304.297C824.655 307.656 839.99 305.319 839.99 305.319 839.99 305.319 826.575 297.533 808.84 294.173 793.995 291.36 780.835 292.54 776.94 293 780.595 285.424 784.17 277.812 787.655 270.163L791.14 262.512C793.265 263.255 804.17 266.839 817.39 267.086 832.14 267.362 844.18 263.375 844.18 263.375 844.18 263.375 832.3 258.94 817.545 258.665 804.585 258.422 793.72 261.47 791.275 262.214L793.46 257.419C793.68 256.935 793.465 256.365 792.98 256.145L792.98 256.145C792.5 255.925 791.93 256.138 791.71 256.622L789.545 261.366C788.48 258.812 783.955 248.643 775.66 238.922 766.085 227.697 755.12 221.331 755.12 221.331 755.12 221.331 759.675 233.164 769.255 244.389 777.74 254.335 787.31 260.462 789.38 261.73L785.905 269.367C782.395 277.073 778.79 284.74 775.11 292.371 773.07 289.178 765.6 278.148 753.9 268.375 740.045 256.803 725.515 251.376 725.515 251.376 725.515 251.376 733.44 264.711 747.29 276.283 759.175 286.21 771.55 291.611 774.83 292.947 769.99 302.967 765.005 312.923 759.87 322.805 757.345 319.669 746.765 307.137 731.035 296.794 712.91 284.875 694.81 280.388 694.81 280.388 694.81 280.388 706.105 295.224 724.23 307.142 740.04 317.536 755.825 322.277 759.6 323.32 754.345 333.426 748.935 343.452 743.38 353.4 741.365 351.224 727.28 336.418 706.575 325.079 684.17 312.815 662.51 309.266 662.51 309.266 662.51 309.266 677.17 325.603 699.57 337.868 720.245 349.186 740.285 353.082 743.26 353.616 737.69 363.581 731.98 373.465 726.115 383.26 723.715 380.953 706.435 364.786 681.71 353.099 655.03 340.487 629.805 337.878 629.805 337.878 629.805 337.878 647.83 355.716 674.51 368.328 699.13 379.966 722.51 383.086 725.975 383.5 706.89 415.386 686.27 446.351 664.225 476.198L618.235 538.47C617.92 538.895 618.01 539.5 618.44 539.815L618.44 539.815C618.865 540.13 619.47 540.04 619.785 539.61L665.775 477.341C687.915 447.365 708.62 416.263 727.78 384.233 730.17 386.53 747.455 402.706 772.19 414.398 798.845 426.997 824.095 429.62 824.095 429.62 824.095 429.62 823.905 429.431 823.55 429.091 820.34 426.046 803.355 410.499 779.39 399.169 754.755 387.523 731.36 384.407 727.92 383.997 733.735 374.272 739.405 364.458 744.93 354.566 747.745 356.942 763.265 369.585 784.66 378.187 808.325 387.703 830.285 388.675 830.285 388.675 830.285 388.675 829.985 388.411 829.42 387.944 825.745 384.887 810.625 372.913 790.095 364.659 768.805 356.099 748.945 354.455 745.13 354.21 750.67 344.285 756.07 334.283 761.315 324.203 764.405 326.387 778.145 335.654 796.325 341.31 817.04 347.754 835.675 347.065 835.675 347.065 835.675 347.065 820.72 335.928 800.005 329.484 781.975 323.876 765.535 323.671 761.57 323.711 766.74 313.757 771.76 303.728 776.64 293.632 779.86 295.37 791.825 301.436 806.925 304.297Z" stroke="#7F7F7F" stroke-width="0.500053" fill="#E6E6E6"/><path d="M816.04 206.952C816.04 206.952 807.12 215.966 800.815 229.305 794.51 242.645 793.205 255.258 793.205 255.258 793.205 255.258 802.125 246.245 808.43 232.905 814.735 219.566 816.04 206.952 816.04 206.952Z" stroke="#7F7F7F" stroke-width="0.500053" fill="#E6E6E6"/><path d="M772.065 66.1515 717.255 215.945 708.5 197.084C707.205 187.191 701.915 153.973 685.72 119.089 666.38 77.422 638.805 49.165 638.805 49.165 638.805 49.165 642.595 88.4635 661.935 130.13 677.52 163.702 698.445 188.564 705.985 196.959 706.275 197.277 706.5 197.531 706.5 197.531L716.06 218.126 680.685 308.203 669.14 283.336C668.315 275.93 661.915 225.063 636.99 171.372 610.02 113.274 571.575 73.8755 571.575 73.8755 571.575 73.8755 576.855 128.67 603.825 186.767 626.275 235.13 656.675 270.531 666.235 281.038L666.01 281.336C656.85 274.185 617.855 245.133 565.435 225.951 505.285 203.941 450.238 203.266 450.238 203.266 450.238 203.266 492.719 238.278 552.87 260.288 607.595 280.314 658.09 282.677 666.755 282.94L679.675 310.777 589.94 539.27 591.8 540 718.23 218.072C725.58 208.238 743.51 182.343 755.795 148.77 771.58 105.63 772.065 66.1515 772.065 66.1515Z" stroke="#7F7F7F" stroke-width="0.500053" fill="#FFFFFF"/><path d="M860.085 312.018C860.085 312.018 813.935 316.466 765.005 339.181 728.685 356.041 701.045 378.222 689.21 388.539 689.19 388.556 689.185 388.553 689.205 388.532 697.185 377.994 719.255 346.823 734.205 305.966 752.74 255.304 753.31 208.943 753.31 208.943L686.825 390.645C686.55 390.939 683.895 393.779 683.46 394.216L534.59 539.15 535.415 540 685.395 393.987C695.63 392.708 735.765 386.707 777.97 367.113 826.9 344.399 860.085 312.018 860.085 312.018Z" stroke="#7F7F7F" stroke-width="0.500053" fill="#D2D2D2"/><path d="M289.154 208.945 289.154 207.945 272.062 207.945 282.51 197.296 281.797 196.596 255.944 222.945 227.478 222.945 249.663 198.445 257.654 198.445 257.654 197.445 250.569 197.445 268.103 178.081 267.362 177.41 250.154 196.414 250.154 179.945 249.154 179.945 249.154 197.518 227.154 221.814 227.154 193.652 253.008 167.799 252.301 167.092 234.636 184.757 234.636 171.154 233.636 171.154 233.636 185.757 227.154 192.238 227.154 161.945 226.154 161.945 226.154 192.238 212.154 178.238 212.154 171.152 219.508 163.799 218.801 163.092 212.154 169.738 212.154 161.445 211.154 161.445 211.154 177.238 201.008 167.092 200.301 167.799 210.447 177.945 196.654 177.945 196.654 178.945 211.447 178.945 226.154 193.652 226.154 222.104 186.307 176.837 185.557 177.497 205.633 200.305 185.93 198.994 181.276 193.686 181.957 183.309 180.958 183.243 180.343 192.623 176.195 187.891 175.443 188.551 184.518 198.9 170.187 197.947 170.12 198.945 184.492 199.9 174.1 209.012 174.759 209.764 185.902 199.995 206.57 201.37 225.563 222.945 164.154 222.945 164.154 223.945 195.462 223.945 181.654 238.014 181.654 237.945 174.361 237.945 167.008 230.592 166.301 231.299 172.947 237.945 162.654 237.945 162.654 238.945 180.74 238.945 169.797 250.095 170.51 250.796 196.864 223.945 225.223 223.945 205.696 245.51 195.348 243.455 195.153 244.436 204.913 246.374 185.741 267.547 186.482 268.219 226.154 224.408 226.154 252.738 223.304 255.589 198.804 279.588 199.503 280.302 211.154 268.891 211.154 283.945 212.154 283.945 212.154 267.945 212.118 267.945 224.008 256.299 226.154 254.152 226.154 285.445 227.154 285.445 227.154 254.152 229.304 256.302 233.636 260.544 233.636 275.238 234.636 275.238 234.636 261.523 241.195 267.945 241.154 267.945 241.154 284.445 242.154 284.445 242.154 268.885 253.304 279.802 254.003 279.088 230.008 255.592 227.154 252.738 227.154 224.753 267.25 270.304 268 269.643 247.37 246.206 266.958 247.415 271.715 252.652 271.021 266.421 272.02 266.47 272.663 253.695 277.284 258.781 278.024 258.109 268.389 247.504 283.623 248.445 283.685 247.447 246.437 245.146 227.775 223.945 255.947 223.945 266.801 234.799 267.508 234.092 257.361 223.945 288.654 223.945 288.654 222.945 257.345 222.945 271.154 208.871 271.154 208.945Z" stroke="#7F7F7F" stroke-width="0.500053" fill="#E6E6E6"/><path d="M331.948 539.89C326.652 491.964 317.818 445.465 305.69 401.687 297.966 373.804 288.897 346.974 278.654 321.652L289.258 311.048 288.551 310.341 278.248 320.641C275.753 314.5 273.19 308.448 270.559 302.493 247.379 250.045 226.757 222.909 226.551 222.641L225.758 223.25C225.962 223.516 246.398 250.417 269.443 302.445L261.654 302.445 261.654 303.445 269.884 303.445C286.711 341.621 307.578 399.602 321.496 475.445L311.654 475.445 311.654 476.445 321.681 476.445C325.32 496.411 328.479 517.605 330.953 540L331.948 539.89Z" stroke="#7F7F7F" stroke-width="0.500053" fill="#E6E6E6"/><path d="M198.154 159.445C198.154 162.207 195.915 164.445 193.154 164.445 190.393 164.445 188.154 162.207 188.154 159.445 188.154 156.684 190.393 154.445 193.154 154.445 195.915 154.445 198.154 156.684 198.154 159.445Z" stroke="#7F7F7F" stroke-width="0.500053" fill="#FFFFFF"/><path d="M187.154 171.445C187.154 174.207 184.915 176.445 182.154 176.445 179.393 176.445 177.154 174.207 177.154 171.445 177.154 168.684 179.393 166.445 182.154 166.445 184.915 166.445 187.154 168.684 187.154 171.445Z" stroke="#7F7F7F" stroke-width="0.500053" fill="#FFFFFF"/><path d="M161.154 181.445C161.154 184.207 158.915 186.445 156.154 186.445 153.393 186.445 151.154 184.207 151.154 181.445 151.154 178.684 153.393 176.445 156.154 176.445 158.915 176.445 161.154 178.684 161.154 181.445Z" stroke="#7F7F7F" stroke-width="0.500053" fill="#FFFFFF"/><path d="M173.654 212.445C173.654 215.207 171.415 217.445 168.654 217.445 165.893 217.445 163.654 215.207 163.654 212.445 163.654 209.684 165.893 207.445 168.654 207.445 171.415 207.445 173.654 209.684 173.654 212.445Z" stroke="#7F7F7F" stroke-width="0.500053" fill="#FFFFFF"/><path d="M197.654 212.445C197.654 215.207 195.415 217.445 192.654 217.445 189.893 217.445 187.654 215.207 187.654 212.445 187.654 209.684 189.893 207.445 192.654 207.445 195.415 207.445 197.654 209.684 197.654 212.445Z" stroke="#7F7F7F" stroke-width="0.500053" fill="#FFFFFF"/><path d="M163.654 197.945C163.654 200.707 161.415 202.945 158.654 202.945 155.893 202.945 153.654 200.707 153.654 197.945 153.654 195.184 155.893 192.945 158.654 192.945 161.415 192.945 163.654 195.184 163.654 197.945Z" stroke="#7F7F7F" stroke-width="0.500053" fill="#FFFFFF"/><path d="M296.654 208.445C296.654 211.207 294.415 213.445 291.654 213.445 288.893 213.445 286.654 211.207 286.654 208.445 286.654 205.684 288.893 203.445 291.654 203.445 294.415 203.445 296.654 205.684 296.654 208.445Z" stroke="#7F7F7F" stroke-width="0.500053" fill="#FFFFFF"/><path d="M286.654 261.445C286.654 264.207 284.415 266.445 281.654 266.445 278.893 266.445 276.654 264.207 276.654 261.445 276.654 258.684 278.893 256.445 281.654 256.445 284.415 256.445 286.654 258.684 286.654 261.445Z" stroke="#7F7F7F" stroke-width="0.500053" fill="#FFFFFF"/><path d="M261.654 162.945C261.654 165.707 259.415 167.945 256.654 167.945 253.893 167.945 251.654 165.707 251.654 162.945 251.654 160.184 253.893 157.945 256.654 157.945 259.415 157.945 261.654 160.184 261.654 162.945Z" stroke="#7F7F7F" stroke-width="0.500053" fill="#FFFFFF"/><path d="M195.655 242.945C195.655 245.706 193.416 247.945 190.655 247.945 187.894 247.945 185.655 245.706 185.655 242.945 185.655 240.183 187.894 237.945 190.655 237.945 193.416 237.945 195.655 240.183 195.655 242.945Z" stroke="#7F7F7F" stroke-width="0.500053" fill="#FFFFFF"/><path d="M167.154 258.945C167.154 261.707 164.915 263.945 162.154 263.945 159.393 263.945 157.154 261.707 157.154 258.945 157.154 256.184 159.393 253.945 162.154 253.945 164.915 253.945 167.154 256.184 167.154 258.945Z" stroke="#7F7F7F" stroke-width="0.500053" fill="#FFFFFF"/><path d="M164.654 238.445C164.654 241.207 162.415 243.445 159.654 243.445 156.893 243.445 154.654 241.207 154.654 238.445 154.654 235.684 156.893 233.445 159.654 233.445 162.415 233.445 164.654 235.684 164.654 238.445Z" stroke="#7F7F7F" stroke-width="0.500053" fill="#FFFFFF"/><path d="M177.154 184.445C177.154 187.207 174.915 189.445 172.154 189.445 169.393 189.445 167.154 187.207 167.154 184.445 167.154 181.684 169.393 179.445 172.154 179.445 174.915 179.445 177.154 181.684 177.154 184.445Z" stroke="#7F7F7F" stroke-width="0.500053" fill="#FFFFFF"/><path d="M172.154 167.445C172.154 170.207 169.915 172.445 167.154 172.445 164.393 172.445 162.154 170.207 162.154 167.445 162.154 164.684 164.393 162.445 167.154 162.445 169.915 162.445 172.154 164.684 172.154 167.445Z" stroke="#7F7F7F" stroke-width="0.500053" fill="#FFFFFF"/><path d="M216.654 157.445C216.654 160.207 214.415 162.445 211.654 162.445 208.893 162.445 206.654 160.207 206.654 157.445 206.654 154.684 208.893 152.445 211.654 152.445 214.415 152.445 216.654 154.684 216.654 157.445Z" stroke="#7F7F7F" stroke-width="0.500053" fill="#FFFFFF"/><path d="M120.154 332.945C120.154 335.707 117.915 337.945 115.154 337.945 112.393 337.945 110.154 335.707 110.154 332.945 110.154 330.184 112.393 327.945 115.154 327.945 117.915 327.945 120.154 330.184 120.154 332.945Z" stroke="#7F7F7F" stroke-width="0.500053" fill="#FFFFFF"/><path d="M157.654 389.445C157.654 392.207 155.415 394.445 152.654 394.445 149.893 394.445 147.654 392.207 147.654 389.445 147.654 386.684 149.893 384.445 152.654 384.445 155.415 384.445 157.654 386.684 157.654 389.445Z" stroke="#7F7F7F" stroke-width="0.500053" fill="#FFFFFF"/><path d="M127.654 391.445C127.654 394.207 125.415 396.445 122.654 396.445 119.893 396.445 117.654 394.207 117.654 391.445 117.654 388.684 119.893 386.445 122.654 386.445 125.415 386.445 127.654 388.684 127.654 391.445Z" stroke="#7F7F7F" stroke-width="0.500053" fill="#FFFFFF"/></g></svg>