<svg width="540" height="540" xmlns="http://www.w3.org/2000/svg" xmlns:xlink="http://www.w3.org/1999/xlink" overflow="hidden"><defs><clipPath id="clip0"><rect x="210" y="0" width="540" height="540"/></clipPath></defs><g clip-path="url(#clip0)" transform="translate(-210 0)"><path d="M682.5 438.188 649.312 438.188 649.312 405.562 664.5 405.562 664.5 404.438 649.312 404.438 649.312 222.75 648.188 222.75 648.188 404.438 615.562 404.438 615.562 371.812 640.875 371.812 640.875 370.688 615.562 370.688 615.562 338.062 628.5 338.062 628.5 336.938 615.562 336.938 615.562 207.225 614.438 207.225 614.438 336.938 581.812 336.938 581.812 304.312 610.5 304.312 610.5 303.188 581.812 303.188 581.812 270.562 592.5 270.562 592.5 269.438 581.812 269.438 581.812 191.7 580.688 191.7 580.688 269.438 548.062 269.438 548.062 236.812 574.5 236.812 574.5 235.688 548.062 235.688 548.062 203.062 556.5 203.062 556.5 201.938 548.062 201.938 548.062 176.175 546.938 176.175 546.938 201.938 514.312 201.938 514.312 169.312 538.5 169.312 538.5 168.188 514.312 168.188 514.312 160.65 513.188 160.65 513.188 168.188 480.562 168.188 480.562 145.125 479.438 145.125 479.438 168.188 446.812 168.188 446.812 135.562 520.5 135.562 520.5 134.438 446.812 134.438 446.812 129.6 445.688 129.6 445.688 134.438 413.062 134.438 413.062 114.075 411.938 114.075 411.938 134.438 379.312 134.438 379.312 101.812 502.5 101.812 502.5 100.688 379.312 100.688 379.312 98.55 378.188 98.55 378.188 100.688 345.562 100.688 345.562 83.025 344.438 83.025 344.438 100.688 311.812 100.688 311.812 67.5 310.688 67.5 310.688 100.688 277.5 100.688 277.5 101.812 310.688 101.812 310.688 134.438 297.075 134.438 297.075 135.562 310.688 135.562 310.688 276.75 311.812 276.75 311.812 135.562 344.438 135.562 344.438 168.188 316.65 168.188 316.65 169.312 344.438 169.312 344.438 201.938 336.225 201.938 336.225 203.062 344.438 203.062 344.438 296.325 345.562 296.325 345.562 203.062 378.188 203.062 378.188 235.688 355.8 235.688 355.8 236.812 378.188 236.812 378.188 269.438 375.375 269.438 375.375 270.562 378.188 270.562 378.188 315.9 379.312 315.9 379.312 270.562 411.938 270.562 411.938 303.188 394.95 303.188 394.95 304.312 411.938 304.312 411.938 335.475 413.062 335.475 413.062 304.312 445.688 304.312 445.688 336.938 414.525 336.938 414.525 338.062 445.688 338.062 445.688 355.05 446.812 355.05 446.812 338.062 479.438 338.062 479.438 370.688 434.1 370.688 434.1 371.812 479.438 371.812 479.438 374.625 480.562 374.625 480.562 371.812 513.188 371.812 513.188 394.2 514.312 394.2 514.312 371.812 546.938 371.812 546.938 404.438 453.675 404.438 453.675 405.562 546.938 405.562 546.938 413.775 548.062 413.775 548.062 405.562 580.688 405.562 580.688 433.35 581.812 433.35 581.812 405.562 614.438 405.562 614.438 438.188 473.25 438.188 473.25 439.312 614.438 439.312 614.438 452.925 615.562 452.925 615.562 439.312 648.188 439.312 648.188 472.5 649.312 472.5 649.312 439.312 682.5 439.312 682.5 438.188ZM614.438 338.062 614.438 370.688 581.812 370.688 581.812 338.062 614.438 338.062ZM580.688 370.688 548.062 370.688 548.062 338.062 580.688 338.062 580.688 370.688ZM580.688 336.938 548.062 336.938 548.062 304.312 580.688 304.312 580.688 336.938ZM413.062 169.312 445.688 169.312 445.688 201.938 413.062 201.938 413.062 169.312ZM411.938 201.938 379.312 201.938 379.312 169.312 411.938 169.312 411.938 201.938ZM445.688 203.062 445.688 235.688 413.062 235.688 413.062 203.062 445.688 203.062ZM480.562 235.688 480.562 203.062 513.188 203.062 513.188 235.688 480.562 235.688ZM513.188 236.812 513.188 269.438 480.562 269.438 480.562 236.812 513.188 236.812ZM479.438 235.688 446.812 235.688 446.812 203.062 479.438 203.062 479.438 235.688ZM445.688 236.812 445.688 269.438 413.062 269.438 413.062 236.812 445.688 236.812ZM446.812 236.812 479.438 236.812 479.438 269.438 446.812 269.438 446.812 236.812ZM479.438 270.562 479.438 303.188 446.812 303.188 446.812 270.562 479.438 270.562ZM480.562 270.562 513.188 270.562 513.188 303.188 480.562 303.188 480.562 270.562ZM514.312 270.562 546.938 270.562 546.938 303.188 514.312 303.188 514.312 270.562ZM513.188 304.312 513.188 336.938 480.562 336.938 480.562 304.312 513.188 304.312ZM514.312 304.312 546.938 304.312 546.938 336.938 514.312 336.938 514.312 304.312ZM580.688 270.562 580.688 303.188 548.062 303.188 548.062 270.562 580.688 270.562ZM546.938 269.438 514.312 269.438 514.312 236.812 546.938 236.812 546.938 269.438ZM546.938 203.062 546.938 235.688 514.312 235.688 514.312 203.062 546.938 203.062ZM513.188 169.312 513.188 201.938 480.562 201.938 480.562 169.312 513.188 169.312ZM479.438 169.312 479.438 201.938 446.812 201.938 446.812 169.312 479.438 169.312ZM445.688 135.562 445.688 168.188 413.062 168.188 413.062 135.562 445.688 135.562ZM411.938 135.562 411.938 168.188 379.312 168.188 379.312 135.562 411.938 135.562ZM378.188 101.812 378.188 134.438 345.562 134.438 345.562 101.812 378.188 101.812ZM311.812 134.438 311.812 101.812 344.438 101.812 344.438 134.438 311.812 134.438ZM345.562 135.562 378.188 135.562 378.188 168.188 345.562 168.188 345.562 135.562ZM345.562 201.938 345.562 169.312 378.188 169.312 378.188 201.938 345.562 201.938ZM379.312 203.062 411.938 203.062 411.938 235.688 379.312 235.688 379.312 203.062ZM379.312 269.438 379.312 236.812 411.938 236.812 411.938 269.438 379.312 269.438ZM413.062 303.188 413.062 270.562 445.688 270.562 445.688 303.188 413.062 303.188ZM446.812 336.938 446.812 304.312 479.438 304.312 479.438 336.938 446.812 336.938ZM480.562 370.688 480.562 338.062 513.188 338.062 513.188 370.688 480.562 370.688ZM514.312 370.688 514.312 338.062 546.938 338.062 546.938 370.688 514.312 370.688ZM548.062 404.438 548.062 371.812 580.688 371.812 580.688 404.438 548.062 404.438ZM581.812 404.438 581.812 371.812 614.438 371.812 614.438 404.438 581.812 404.438ZM615.562 438.188 615.562 405.562 648.188 405.562 648.188 438.188 615.562 438.188Z" fill="#E6E6E6"/><path d="M409.432 151.301C409.432 156.849 404.935 161.347 399.386 161.347 393.838 161.347 389.341 156.849 389.341 151.301 389.341 145.753 393.838 141.256 399.386 141.256 404.935 141.256 409.432 145.753 409.432 151.301Z" fill="#D2D2D2"/><path d="M608.25 419.546C608.25 425.094 603.752 429.591 598.204 429.591 592.656 429.591 588.159 425.094 588.159 419.546 588.159 413.998 592.656 409.5 598.204 409.5 603.752 409.5 608.25 413.998 608.25 419.546Z" fill="#F2F2F2"/><path d="M608.25 286.954C608.25 292.502 603.752 297 598.204 297 592.656 297 588.159 292.502 588.159 286.954 588.159 281.406 592.656 276.909 598.204 276.909 603.752 276.909 608.25 281.406 608.25 286.954Z" fill="#D2D2D2"/><path d="M574.341 354.454C574.341 360.002 569.844 364.5 564.296 364.5 558.748 364.5 554.25 360.002 554.25 354.454 554.25 348.906 558.748 344.409 564.296 344.409 569.844 344.409 574.341 348.906 574.341 354.454Z" fill="#737373"/><path d="M488.841 372.296C488.841 377.844 484.344 382.341 478.796 382.341 473.248 382.341 468.75 377.844 468.75 372.296 468.75 366.748 473.248 362.25 478.796 362.25 484.344 362.25 488.841 366.748 488.841 372.296Z" fill="#737373"/><path d="M491.091 185.546C491.091 191.094 486.594 195.591 481.046 195.591 475.498 195.591 471 191.094 471 185.546 471 179.998 475.498 175.5 481.046 175.5 486.594 175.5 491.091 179.998 491.091 185.546Z" fill="#F2F2F2"/><path d="M473.25 219.454C473.25 225.002 468.752 229.5 463.204 229.5 457.656 229.5 453.159 225.002 453.159 219.454 453.159 213.906 457.656 209.409 463.204 209.409 468.752 209.409 473.25 213.906 473.25 219.454Z" fill="#737373"/><path d="M304.343 185.703C304.343 191.251 299.845 195.748 294.297 195.748 288.749 195.748 284.252 191.251 284.252 185.703 284.252 180.155 288.749 175.657 294.297 175.657 299.845 175.657 304.343 180.155 304.343 185.703Z" fill="#F2F2F2"/><path d="M387.748 203.703C387.748 209.251 383.251 213.748 377.703 213.748 372.155 213.748 367.657 209.251 367.657 203.703 367.657 198.155 372.155 193.657 377.703 193.657 383.251 193.657 387.748 198.155 387.748 203.703Z" fill="#505050"/><path d="M524.998 203.547C524.998 209.095 520.501 213.593 514.953 213.593 509.405 213.593 504.907 209.095 504.907 203.547 504.907 197.999 509.405 193.502 514.953 193.502 520.501 193.502 524.998 197.999 524.998 203.547Z" fill="#F2F2F2"/><path d="M577.981 248.07C577.981 253.618 573.484 258.116 567.936 258.116 562.388 258.116 557.89 253.618 557.89 248.07 557.89 242.522 562.388 238.025 567.936 238.025 573.484 238.025 577.981 242.522 577.981 248.07Z" fill="#505050"/><path d="M540.412 341.776C540.412 347.324 535.915 351.821 530.367 351.821 524.819 351.821 520.321 347.324 520.321 341.776 520.321 336.227 524.819 331.73 530.367 331.73 535.915 331.73 540.412 336.227 540.412 341.776Z" fill="#F2F2F2"/><path d="M366.556 262.379C366.556 267.927 362.059 272.424 356.51 272.424 350.962 272.424 346.465 267.927 346.465 262.379 346.465 256.831 350.962 252.333 356.51 252.333 362.059 252.333 366.556 256.831 366.556 262.379Z" fill="#505050"/><path d="M338.248 151.797C338.248 157.345 333.751 161.843 328.203 161.843 322.655 161.843 318.157 157.345 318.157 151.797 318.157 146.249 322.655 141.752 328.203 141.752 333.751 141.752 338.248 146.249 338.248 151.797Z" fill="#737373"/><path d="M474.728 301.983C474.728 307.531 470.23 312.029 464.682 312.029 459.134 312.029 454.636 307.531 454.636 301.983 454.636 296.435 459.134 291.938 464.682 291.938 470.23 291.938 474.728 296.435 474.728 301.983Z" fill="#D2D2D2"/><path d="M543 232.954C543 238.502 538.502 243 532.954 243 527.406 243 522.909 238.502 522.909 232.954 522.909 227.406 527.406 222.909 532.954 222.909 538.502 222.909 543 227.406 543 232.954Z" fill="#505050"/><path d="M524.955 291.938C524.955 297.486 520.457 301.984 514.909 301.984 509.361 301.984 504.864 297.486 504.864 291.938 504.864 286.39 509.361 281.892 514.909 281.892 520.457 281.892 524.955 286.39 524.955 291.938Z" fill="#D2D2D2"/><path d="M561 279.523C561 282.296 558.751 284.545 555.977 284.545 553.204 284.545 550.955 282.296 550.955 279.523 550.955 276.749 553.203 274.5 555.977 274.5 558.751 274.5 561 276.749 561 279.523Z" fill="#505050"/><path d="M495.75 246.977C495.75 249.751 493.501 252 490.727 252 487.954 252 485.705 249.751 485.705 246.977 485.705 244.204 487.954 241.955 490.727 241.955 493.501 241.955 495.75 244.204 495.75 246.977Z" fill="#505050"/><path d="M560.114 211.574C560.114 214.348 557.865 216.597 555.091 216.597 552.317 216.597 550.068 214.348 550.068 211.574 550.068 208.8 552.317 206.552 555.091 206.552 557.865 206.552 560.114 208.8 560.114 211.574Z" fill="#F2F2F2"/><path d="M462 343.727C462 346.501 459.751 348.75 456.977 348.75 454.204 348.75 451.955 346.501 451.955 343.727 451.955 340.954 454.204 338.705 456.977 338.705 459.751 338.705 462 340.954 462 343.727Z" fill="#505050"/><path d="M475.5 320.023C475.5 322.796 473.251 325.045 470.477 325.045 467.704 325.045 465.455 322.796 465.455 320.023 465.455 317.249 467.704 315 470.477 315 473.251 315 475.5 317.249 475.5 320.023Z" fill="#505050"/><path d="M508.045 326.773C508.045 329.546 505.796 331.795 503.023 331.795 500.249 331.795 498 329.546 498 326.773 498 323.999 500.249 321.75 503.023 321.75 505.796 321.75 508.045 323.999 508.045 326.773Z" fill="#505050"/><path d="M406.795 225.523C406.795 228.296 404.546 230.545 401.773 230.545 398.999 230.545 396.75 228.296 396.75 225.523 396.75 222.749 398.999 220.5 401.773 220.5 404.546 220.5 406.795 222.749 406.795 225.523Z" fill="#505050"/><path d="M475.5 260.477C475.5 263.251 473.251 265.5 470.477 265.5 467.704 265.5 465.455 263.251 465.455 260.477 465.455 257.704 467.704 255.455 470.477 255.455 473.251 255.455 475.5 257.704 475.5 260.477Z" fill="#505050"/></g></svg>